<?xml version="1.0" encoding="utf-8" ?>
<svg baseProfile="tiny" height="100%" version="1.2" width="100%" xmlns="http://www.w3.org/2000/svg" xmlns:ev="http://www.w3.org/2001/xml-events" xmlns:xlink="http://www.w3.org/1999/xlink"><defs /><rect fill="red" height="20" stroke="gray" width="10" x="10" y="132" /><text x="25" y="152">DSP</text><rect fill="blue" height="10" stroke="gray" width="10" x="70" y="142" /><text x="85" y="152">LAB</text><rect fill="orange" height="10" stroke="gray" width="10" x="130" y="142" /><text x="145" y="152">RAM</text><rect fill="white" height="116" stroke="orange" width="172" x="0" y="0" /><rect fill="blue" height="10" stroke="gray" width="10" x="18" y="102" /><rect fill="blue" height="10" stroke="gray" width="10" x="18" y="88" /><rect fill="blue" height="10" stroke="gray" width="10" x="18" y="74" /><rect fill="blue" height="10" stroke="gray" width="10" x="18" y="60" /><rect fill="blue" height="10" stroke="gray" width="10" x="18" y="46" /><rect fill="blue" height="10" stroke="gray" width="10" x="18" y="32" /><rect fill="blue" height="10" stroke="gray" width="10" x="18" y="18" /><rect fill="blue" height="10" stroke="gray" width="10" x="18" y="4" /><rect fill="blue" height="10" stroke="gray" width="10" x="32" y="102" /><rect fill="blue" height="10" stroke="gray" width="10" x="32" y="88" /><rect fill="blue" height="10" stroke="gray" width="10" x="32" y="74" /><rect fill="blue" height="10" stroke="gray" width="10" x="32" y="60" /><rect fill="blue" height="10" stroke="gray" width="10" x="32" y="46" /><rect fill="blue" height="10" stroke="gray" width="10" x="32" y="32" /><rect fill="blue" height="10" stroke="gray" width="10" x="32" y="18" /><rect fill="blue" height="10" stroke="gray" width="10" x="32" y="4" /><rect fill="blue" height="10" stroke="gray" width="10" x="60" y="102" /><rect fill="blue" height="10" stroke="gray" width="10" x="60" y="88" /><rect fill="blue" height="10" stroke="gray" width="10" x="60" y="74" /><rect fill="blue" height="10" stroke="gray" width="10" x="60" y="60" /><rect fill="blue" height="10" stroke="gray" width="10" x="60" y="46" /><rect fill="blue" height="10" stroke="gray" width="10" x="60" y="32" /><rect fill="blue" height="10" stroke="gray" width="10" x="60" y="18" /><rect fill="blue" height="10" stroke="gray" width="10" x="60" y="4" /><rect fill="blue" height="10" stroke="gray" width="10" x="74" y="102" /><rect fill="blue" height="10" stroke="gray" width="10" x="74" y="88" /><rect fill="blue" height="10" stroke="gray" width="10" x="74" y="74" /><rect fill="blue" height="10" stroke="gray" width="10" x="74" y="60" /><rect fill="blue" height="10" stroke="gray" width="10" x="74" y="46" /><rect fill="blue" height="10" stroke="gray" width="10" x="74" y="32" /><rect fill="blue" height="10" stroke="gray" width="10" x="74" y="18" /><rect fill="blue" height="10" stroke="gray" width="10" x="74" y="4" /><rect fill="blue" height="10" stroke="gray" width="10" x="102" y="102" /><rect fill="blue" height="10" stroke="gray" width="10" x="102" y="88" /><rect fill="blue" height="10" stroke="gray" width="10" x="102" y="74" /><rect fill="blue" height="10" stroke="gray" width="10" x="102" y="60" /><rect fill="blue" height="10" stroke="gray" width="10" x="102" y="46" /><rect fill="blue" height="10" stroke="gray" width="10" x="102" y="32" /><rect fill="blue" height="10" stroke="gray" width="10" x="102" y="18" /><rect fill="blue" height="10" stroke="gray" width="10" x="102" y="4" /><rect fill="blue" height="10" stroke="gray" width="10" x="116" y="102" /><rect fill="blue" height="10" stroke="gray" width="10" x="116" y="88" /><rect fill="blue" height="10" stroke="gray" width="10" x="116" y="74" /><rect fill="blue" height="10" stroke="gray" width="10" x="116" y="60" /><rect fill="blue" height="10" stroke="gray" width="10" x="116" y="46" /><rect fill="blue" height="10" stroke="gray" width="10" x="116" y="32" /><rect fill="blue" height="10" stroke="gray" width="10" x="116" y="18" /><rect fill="blue" height="10" stroke="gray" width="10" x="116" y="4" /><rect fill="blue" height="10" stroke="gray" width="10" x="144" y="102" /><rect fill="blue" height="10" stroke="gray" width="10" x="144" y="88" /><rect fill="blue" height="10" stroke="gray" width="10" x="144" y="74" /><rect fill="blue" height="10" stroke="gray" width="10" x="144" y="60" /><rect fill="blue" height="10" stroke="gray" width="10" x="144" y="46" /><rect fill="blue" height="10" stroke="gray" width="10" x="144" y="32" /><rect fill="blue" height="10" stroke="gray" width="10" x="144" y="18" /><rect fill="blue" height="10" stroke="gray" width="10" x="144" y="4" /><rect fill="blue" height="10" stroke="gray" width="10" x="158" y="102" /><rect fill="blue" height="10" stroke="gray" width="10" x="158" y="88" /><rect fill="blue" height="10" stroke="gray" width="10" x="158" y="74" /><rect fill="blue" height="10" stroke="gray" width="10" x="158" y="60" /><rect fill="blue" height="10" stroke="gray" width="10" x="158" y="46" /><rect fill="blue" height="10" stroke="gray" width="10" x="158" y="32" /><rect fill="blue" height="10" stroke="gray" width="10" x="158" y="18" /><rect fill="blue" height="10" stroke="gray" width="10" x="158" y="4" /><rect fill="orange" height="10" stroke="gray" width="10" x="4" y="102" /><rect fill="orange" height="10" stroke="gray" width="10" x="4" y="88" /><rect fill="orange" height="10" stroke="gray" width="10" x="4" y="74" /><rect fill="orange" height="10" stroke="gray" width="10" x="4" y="60" /><rect fill="orange" height="10" stroke="gray" width="10" x="4" y="46" /><rect fill="orange" height="10" stroke="gray" width="10" x="4" y="32" /><rect fill="orange" height="10" stroke="gray" width="10" x="4" y="18" /><rect fill="orange" height="10" stroke="gray" width="10" x="4" y="4" /><rect fill="orange" height="10" stroke="gray" width="10" x="88" y="102" /><rect fill="orange" height="10" stroke="gray" width="10" x="88" y="88" /><rect fill="orange" height="10" stroke="gray" width="10" x="88" y="74" /><rect fill="orange" height="10" stroke="gray" width="10" x="88" y="60" /><rect fill="orange" height="10" stroke="gray" width="10" x="88" y="46" /><rect fill="orange" height="10" stroke="gray" width="10" x="88" y="32" /><rect fill="orange" height="10" stroke="gray" width="10" x="88" y="18" /><rect fill="orange" height="10" stroke="gray" width="10" x="88" y="4" /><rect fill="red" height="24" stroke="gray" width="10" x="46" y="88" /><rect fill="red" height="24" stroke="gray" width="10" x="46" y="60" /><rect fill="red" height="24" stroke="gray" width="10" x="46" y="32" /><rect fill="red" height="24" stroke="gray" width="10" x="46" y="4" /><rect fill="red" height="24" stroke="gray" width="10" x="130" y="88" /><rect fill="red" height="24" stroke="gray" width="10" x="130" y="60" /><rect fill="red" height="24" stroke="gray" width="10" x="130" y="32" /><rect fill="red" height="24" stroke="gray" width="10" x="130" y="4" /></svg>